<svg xmlns="http://www.w3.org/2000/svg" xmlns:xlink="http://www.w3.org/1999/xlink" version="1.1" width="1000" height="1000" viewBox="0 0 1000 1000" xml:space="preserve">
<desc>Created with Fabric.js 3.5.0</desc>
<defs>
</defs>
<rect x="0" y="0" width="100%" height="100%" fill="rgba(255,255,255,0)"/>
<g transform="matrix(-13.7874 0 0 13.7874 500.5005 500.5005)" id="348108">
<path style="stroke: none; stroke-width: 0; stroke-dasharray: none; stroke-linecap: butt; stroke-dashoffset: 0; stroke-linejoin: miter; stroke-miterlimit: 4; is-custom-font: none; font-file-url: none; fill: rgb(0,0,0); fill-rule: nonzero; opacity: 1;" vector-effect="non-scaling-stroke" transform=" translate(-27.9323, -28.0719)" d="M 43.293 16.9258 L 45.6601 14.6055 C 46.8555 13.4101 46.9023 12.1211 45.8477 11.043 L 45.0508 10.2461 C 43.9961 9.1914 42.707 9.3086 41.5117 10.457 L 39.1445 12.8008 Z M 15.6601 44.4883 L 41.2305 18.9414 L 37.1289 14.8164 L 11.5352 40.3867 L 9.3086 45.5898 C 9.0977 46.1523 9.6836 46.8086 10.2461 46.5742 Z" stroke-linecap="round"/>
</g>
<g transform="matrix(1.7756 0 0 1.7756 499.5081 499.5081)" id="878626">
<path style="stroke: none; stroke-width: 0; stroke-dasharray: none; stroke-linecap: butt; stroke-dashoffset: 0; stroke-linejoin: miter; stroke-miterlimit: 4; is-custom-font: none; font-file-url: none; fill: rgb(214,66,66); fill-rule: nonzero; opacity: 1;" vector-effect="non-scaling-stroke" transform=" translate(-256, -256)" d="M 256 0 C 114.84 0 0 114.842 0 256 s 114.84 256 256 256 s 256 -114.842 256 -256 S 397.16 0 256 0 z M 49.548 256 c 0 -113.837 92.614 -206.452 206.452 -206.452 c 48.011 0 92.246 16.473 127.351 44.065 L 93.613 383.351 C 66.022 348.246 49.548 304.011 49.548 256 z M 256 462.452 c -48.011 0 -92.246 -16.473 -127.351 -44.065 l 289.738 -289.738 c 27.592 35.105 44.065 79.34 44.065 127.351 C 462.452 369.837 369.837 462.452 256 462.452 z" stroke-linecap="round"/>
</g>
</svg>